# xmcd
#
# Track frame offsets: 
#        150
#        11075
#        31983
#        51299
#        67470
#        86222
#        107976
#        134592
#        145862
#        162405
#        177043
#        194179
#        207933
#        222578
#        235701
#        252648
#        264298
#        280727
#        293185
#        309756
#
# Disc length: 4461 seconds
#
# Revision: 0
# Processed by: cddbd v1.5.2PL0 Copyright (c) Steve Scherf et al.
# Submitted via: ExactAudioCopyFreeDBPlugin 1.0
#
DISCID=41116b14
DTITLE=Jason Ringenberg - Best Tracks and Side Tracks 1979-2007 CD1
DYEAR=2007
DGENRE=Country
TTITLE0=Shop It Around
TTITLE1=The Life Of The Party
TTITLE2=Bible And A Gun
TTITLE3=Camille
TTITLE4=Punk Rock Skunk
TTITLE5=One Less Heartache
TTITLE6=She Hung The Moon (Until It Died)
TTITLE7=Rainbow Stew
TTITLE8=For Addie Rose
TTITLE9=Born To Run
TTITLE10=The Price Of Progress
TTITLE11=Prosperity Train
TTITLE12=A Pocketful Of Soul
TTITLE13=Eddie Rode The Orphan Train
TTITLE14=Link Wray
TTITLE15=Tuskegee Pride
TTITLE16=Half The Man
TTITLE17=Chief Joseph's Last Dream
TTITLE18=Broken Whiskey Glass
TTITLE19=Last Train To Memphis
EXTD=
EXTT0=
EXTT1=
EXTT2=
EXTT3=
EXTT4=
EXTT5=
EXTT6=
EXTT7=
EXTT8=
EXTT9=
EXTT10=
EXTT11=
EXTT12=
EXTT13=
EXTT14=
EXTT15=
EXTT16=
EXTT17=
EXTT18=
EXTT19=
PLAYORDER=
